<?xml version="1.0" encoding="utf-8"?>
<!-- Generator: Adobe Illustrator 19.1.0, SVG Export Plug-In . SVG Version: 6.00 Build 0)  -->
<!DOCTYPE svg PUBLIC "-//W3C//DTD SVG 1.1//EN" "http://www.w3.org/Graphics/SVG/1.1/DTD/svg11.dtd">
<svg version="1.1" id="Layer_1" xmlns="http://www.w3.org/2000/svg" xmlns:xlink="http://www.w3.org/1999/xlink" x="0px" y="0px"
	 width="174px" height="91px" viewBox="-308 261 174 91" style="enable-background:new -308 261 174 91;" xml:space="preserve">
<g id="Layer_1_1_">
	<g>
		<g>
			<g>
				<path d="M-236.2,346.4L-236.2,346.4c0-1.2,1-2.3,2.3-2.3s2.3,1.1,2.3,2.3l0,0c0,1.2-1,2.3-2.3,2.3S-236.2,347.6-236.2,346.4z
					 M-232.1,346.4L-232.1,346.4c0-1-0.7-1.9-1.7-1.9s-1.7,0.8-1.7,1.9l0,0c0,1,0.7,1.9,1.7,1.9
					C-232.8,348.2-232.1,347.4-232.1,346.4z"/>
				<path d="M-229.5,344.2h1.7c1,0,1.7,0.5,1.7,1.4l0,0c0,1-0.8,1.5-1.7,1.5h-1.1v1.6h-0.5v-4.5H-229.5z M-227.9,346.6
					c0.7,0,1.2-0.4,1.2-1l0,0c0-0.6-0.5-1-1.2-1h-1.2v2H-227.9z"/>
				<path d="M-223,344.6h-1.5v-0.5h3.5v0.5h-1.5v4h-0.5V344.6L-223,344.6z"/>
				<path d="M-218.9,344.2h0.5v4.4h-0.5V344.2z"/>
				<path d="M-216.3,346.4L-216.3,346.4c0-1.3,1-2.3,2.3-2.3c0.8,0,1.3,0.3,1.7,0.7l-0.3,0.4c-0.4-0.4-0.8-0.6-1.4-0.6
					c-1,0-1.7,0.8-1.7,1.9l0,0c0,1,0.7,1.9,1.7,1.9c0.6,0,1-0.3,1.4-0.6l0.3,0.3c-0.5,0.5-1,0.8-1.8,0.8
					C-215.3,348.7-216.3,347.7-216.3,346.4z"/>
				<path d="M-210.6,348l0.3-0.4c0.5,0.5,0.9,0.6,1.5,0.6s1-0.3,1-0.8l0,0c0-0.4-0.3-0.6-1.2-0.8c-1-0.3-1.5-0.6-1.5-1.3l0,0
					c0-0.7,0.6-1.2,1.5-1.2c0.6,0,1.2,0.2,1.5,0.6l-0.3,0.4c-0.4-0.3-0.8-0.5-1.3-0.5c-0.6,0-1,0.3-1,0.7l0,0c0,0.5,0.3,0.6,1.2,0.8
					c1,0.3,1.5,0.6,1.5,1.3l0,0c0,0.8-0.6,1.3-1.5,1.3C-209.4,348.7-210.1,348.5-210.6,348z"/>
			</g>
			<g>
				<path d="M-249.5,336.2l7.3-8.8h-7v-1.9h9.9v1.6l-7.3,8.8h7.3v1.9h-10.2V336.2L-249.5,336.2z"/>
				<path d="M-233.8,325.5h9.1v1.9h-7v3.2h6.2v1.9h-6.2v3.3h7.1v1.9h-9.3L-233.8,325.5L-233.8,325.5z"/>
				<path d="M-214.9,325.4h2l5.5,12.4h-2.3l-1.2-3h-5.9l-1.3,3h-2.3L-214.9,325.4z M-211.8,332.9l-2.1-5l-2.1,5H-211.8z"/>
				<path d="M-202.5,325.5h2.2v10.4h6.5v2h-8.6L-202.5,325.5L-202.5,325.5z"/>
			</g>
		</g>
		<g>
			<polygon points="-233.5,277.7 -250.3,277.7 -240.7,264.2 -223.9,264.2 			"/>
			<polygon points="-225.3,312.2 -249.9,312.2 -216.8,264.2 -192.1,264.2 			"/>
			<polygon points="-201.3,312.2 -218.1,312.2 -208.4,298.6 -191.7,298.6 			"/>
		</g>
	</g>
</g>
<g id="Layer_2">
</g>
<g id="Layer_3">
</g>
</svg>
